<?xml version="1.0" encoding="UTF-8" standalone="no"?>
<!DOCTYPE svg PUBLIC "-//W3C//DTD SVG 1.1//EN"
 "http://www.w3.org/Graphics/SVG/1.1/DTD/svg11.dtd">
<!-- Generated by graphviz version 2.43.0 (0)
 -->
<!-- Title: /control&#45;graph Pages: 1 -->
<svg width="691pt" height="161pt"
 viewBox="0.00 0.00 691.00 161.00" xmlns="http://www.w3.org/2000/svg" xmlns:xlink="http://www.w3.org/1999/xlink">
<g id="graph0" class="graph" transform="scale(1 1) rotate(0) translate(4 157)">
<title>/control&#45;graph</title>
<polygon fill="white" stroke="transparent" points="-4,4 -4,-157 687,-157 687,4 -4,4"/>
<text text-anchor="middle" x="341.5" y="-7.8" font-family="Times,serif" font-size="14.00">/control&#45;graph</text>
<g id="clust2" class="cluster">
<title>cluster_Tasks</title>
<polygon fill="white" stroke="black" points="537,-31 537,-145 675,-145 675,-31 537,-31"/>
<text text-anchor="middle" x="606" y="-129.8" font-family="Times,serif" font-size="14.00">/control&#45;graph</text>
</g>
<g id="clust3" class="cluster">
<title>cluster_sot</title>
<polygon fill="#cae1ff" stroke="#cae1ff" points="545,-39 545,-114 667,-114 667,-39 545,-39"/>
<text text-anchor="middle" x="606" y="-98.8" font-family="Times,serif" font-size="14.00">sot</text>
</g>
<!-- UniversalRobot -->
<g id="node1" class="node">
<title>UniversalRobot</title>
<polygon fill="cyan" stroke="black" points="218,-83 90,-83 90,-47 218,-47 218,-83"/>
<text text-anchor="middle" x="154" y="-61.3" font-family="Times,serif" font-size="14.00">UniversalRobot</text>
</g>
<!-- ur_dynamic -->
<g id="node4" class="node">
<title>ur_dynamic</title>
<polygon fill="cyan" stroke="black" points="353,-83 254,-83 254,-47 353,-47 353,-83"/>
<text text-anchor="middle" x="303.5" y="-61.3" font-family="Times,serif" font-size="14.00">ur_dynamic</text>
</g>
<!-- UniversalRobot&#45;&gt;ur_dynamic -->
<g id="edge5" class="edge">
<title>UniversalRobot&#45;&gt;ur_dynamic</title>
<path fill="none" stroke="black" d="M218.41,-65C226.85,-65 235.47,-65 243.82,-65"/>
<polygon fill="black" stroke="black" points="243.85,-68.5 253.85,-65 243.85,-61.5 243.85,-68.5"/>
<text text-anchor="middle" x="238.85" y="-67.4" font-family="Times,serif" font-size="7.00" fill="red">position</text>
<text text-anchor="middle" x="227.91" y="-59.4" font-family="Times,serif" font-size="7.00" fill="red">state</text>
</g>
<!-- sot -->
<g id="node2" class="node">
<title>sot</title>
<polygon fill="cyan" stroke="black" points="54,-83 0,-83 0,-47 54,-47 54,-83"/>
<text text-anchor="middle" x="27" y="-61.3" font-family="Times,serif" font-size="14.00">sot</text>
</g>
<!-- sot&#45;&gt;UniversalRobot -->
<g id="edge1" class="edge">
<title>sot&#45;&gt;UniversalRobot</title>
<path fill="none" stroke="black" d="M54.2,-65C61.8,-65 70.49,-65 79.49,-65"/>
<polygon fill="black" stroke="black" points="79.75,-68.5 89.75,-65 79.75,-61.5 79.75,-68.5"/>
<text text-anchor="middle" x="76.75" y="-67.4" font-family="Times,serif" font-size="7.00" fill="red">control</text>
<text text-anchor="middle" x="67.2" y="-59.4" font-family="Times,serif" font-size="7.00" fill="red">control</text>
</g>
<!-- feature_camera -->
<g id="node3" class="node">
<title>feature_camera</title>
<polygon fill="cyan" stroke="black" points="517,-83 389,-83 389,-47 517,-47 517,-83"/>
<text text-anchor="middle" x="453" y="-61.3" font-family="Times,serif" font-size="14.00">feature_camera</text>
</g>
<!-- task_camera -->
<g id="node5" class="node">
<title>task_camera</title>
<polygon fill="cyan" stroke="black" points="659,-83 553,-83 553,-47 659,-47 659,-83"/>
<text text-anchor="middle" x="606" y="-61.3" font-family="Times,serif" font-size="14.00">task_camera</text>
</g>
<!-- feature_camera&#45;&gt;task_camera -->
<g id="edge4" class="edge">
<title>feature_camera&#45;&gt;task_camera</title>
<path fill="none" stroke="black" d="M517.16,-65C525.55,-65 534.15,-65 542.53,-65"/>
<polygon fill="black" stroke="black" points="542.6,-68.5 552.6,-65 542.6,-61.5 542.6,-68.5"/>
</g>
<!-- ur_dynamic&#45;&gt;feature_camera -->
<g id="edge2" class="edge">
<title>ur_dynamic&#45;&gt;feature_camera</title>
<path fill="none" stroke="black" d="M353.21,-58.61C361.41,-58.36 370.08,-58.25 378.74,-58.25"/>
<polygon fill="black" stroke="black" points="378.86,-61.75 388.88,-58.31 378.9,-54.75 378.86,-61.75"/>
<text text-anchor="middle" x="380.38" y="-52.71" font-family="Times,serif" font-size="7.00" fill="red">jaJja</text>
<text text-anchor="middle" x="406.21" y="-61.01" font-family="Times,serif" font-size="7.00" fill="red">Jcamera_color_optical_frame</text>
</g>
<!-- ur_dynamic&#45;&gt;feature_camera -->
<g id="edge3" class="edge">
<title>ur_dynamic&#45;&gt;feature_camera</title>
<path fill="none" stroke="black" d="M353.21,-71.39C361.41,-71.64 370.08,-71.75 378.74,-71.75"/>
<polygon fill="black" stroke="black" points="378.9,-75.25 388.88,-71.69 378.86,-68.25 378.9,-75.25"/>
<text text-anchor="middle" x="379.38" y="-66.09" font-family="Times,serif" font-size="7.00" fill="red">oMja</text>
<text text-anchor="middle" x="404.71" y="-73.79" font-family="Times,serif" font-size="7.00" fill="red">camera_color_optical_frame</text>
</g>
</g>
</svg>
