<?xml version="1.0" encoding="UTF-8" standalone="no"?>
<!DOCTYPE svg PUBLIC "-//W3C//DTD SVG 1.1//EN"
 "http://www.w3.org/Graphics/SVG/1.1/DTD/svg11.dtd">
<!-- Generated by graphviz version 2.43.0 (0)
 -->
<!-- Title: /graph Pages: 1 -->
<svg width="380pt" height="198pt"
 viewBox="0.00 0.00 380.00 198.00" xmlns="http://www.w3.org/2000/svg" xmlns:xlink="http://www.w3.org/1999/xlink">
<g id="graph0" class="graph" transform="scale(1 1) rotate(0) translate(4 194)">
<title>/graph</title>
<polygon fill="white" stroke="transparent" points="-4,4 -4,-194 376,-194 376,4 -4,4"/>
<text text-anchor="middle" x="186" y="-7.8" font-family="Times,serif" font-size="14.00">/graph</text>
<!-- RobotArm -->
<g id="node1" class="node">
<title>RobotArm</title>
<polygon fill="cyan" stroke="black" points="372,-113 283,-113 283,-77 372,-77 372,-113"/>
<text text-anchor="middle" x="327.5" y="-91.3" font-family="Times,serif" font-size="14.00">RobotArm</text>
</g>
<!-- ur_selector -->
<g id="node2" class="node">
<title>ur_selector</title>
<polygon fill="cyan" stroke="black" points="245.5,-113 149.5,-113 149.5,-77 245.5,-77 245.5,-113"/>
<text text-anchor="middle" x="197.5" y="-91.3" font-family="Times,serif" font-size="14.00">ur_selector</text>
</g>
<!-- ur_selector&#45;&gt;RobotArm -->
<g id="edge1" class="edge">
<title>ur_selector&#45;&gt;RobotArm</title>
<path fill="none" stroke="black" d="M245.8,-95C254.5,-95 263.65,-95 272.53,-95"/>
<polygon fill="black" stroke="black" points="272.79,-98.5 282.79,-95 272.79,-91.5 272.79,-98.5"/>
<text text-anchor="middle" x="269.79" y="-97.4" font-family="Times,serif" font-size="7.00" fill="red">control</text>
<text text-anchor="middle" x="253.8" y="-89.4" font-family="Times,serif" font-size="7.00" fill="red">sout</text>
</g>
<!-- control -->
<g id="node3" class="node">
<title>control</title>
<polygon fill="cyan" stroke="black" points="361,-190 294,-190 294,-154 361,-154 361,-190"/>
<text text-anchor="middle" x="327.5" y="-168.3" font-family="Times,serif" font-size="14.00">control</text>
</g>
<!-- ur_integrator -->
<g id="node5" class="node">
<title>ur_integrator</title>
<polygon fill="cyan" stroke="black" points="112,-140 0,-140 0,-104 112,-104 112,-140"/>
<text text-anchor="middle" x="56" y="-118.3" font-family="Times,serif" font-size="14.00">ur_integrator</text>
</g>
<!-- control&#45;&gt;ur_integrator -->
<g id="edge5" class="edge">
<title>control&#45;&gt;ur_integrator</title>
<path fill="none" stroke="black" d="M293.9,-178.24C257.58,-183.93 197.47,-189.57 148,-176 126.43,-170.08 104.79,-157.57 88.02,-146.09"/>
<polygon fill="black" stroke="black" points="89.91,-143.14 79.73,-140.21 85.87,-148.85 89.91,-143.14"/>
<text text-anchor="middle" x="65.73" y="-142.61" font-family="Times,serif" font-size="7.00" fill="red">velocity</text>
<text text-anchor="middle" x="285.9" y="-172.64" font-family="Times,serif" font-size="7.00" fill="red">sout</text>
</g>
<!-- error -->
<g id="node4" class="node">
<title>error</title>
<polygon fill="cyan" stroke="black" points="224.5,-167 170.5,-167 170.5,-131 224.5,-131 224.5,-167"/>
<text text-anchor="middle" x="197.5" y="-145.3" font-family="Times,serif" font-size="14.00">error</text>
</g>
<!-- error&#45;&gt;control -->
<g id="edge2" class="edge">
<title>error&#45;&gt;control</title>
<path fill="none" stroke="black" d="M224.71,-153.71C241.78,-156.78 264.43,-160.85 284.03,-164.37"/>
<polygon fill="black" stroke="black" points="283.49,-167.83 293.96,-166.15 284.73,-160.94 283.49,-167.83"/>
<text text-anchor="middle" x="285.96" y="-160.55" font-family="Times,serif" font-size="7.00" fill="red">sin2</text>
<text text-anchor="middle" x="232.71" y="-148.11" font-family="Times,serif" font-size="7.00" fill="red">sout</text>
</g>
<!-- ur_integrator&#45;&gt;ur_selector -->
<g id="edge6" class="edge">
<title>ur_integrator&#45;&gt;ur_selector</title>
<path fill="none" stroke="black" d="M112.13,-111.33C121.1,-109.59 130.4,-107.79 139.41,-106.05"/>
<polygon fill="black" stroke="black" points="140.27,-109.45 149.42,-104.11 138.94,-102.58 140.27,-109.45"/>
<text text-anchor="middle" x="143.92" y="-98.51" font-family="Times,serif" font-size="7.00" fill="red">sin</text>
<text text-anchor="middle" x="136.63" y="-113.73" font-family="Times,serif" font-size="7.00" fill="red">configuration</text>
</g>
<!-- ur_integrator&#45;&gt;error -->
<g id="edge3" class="edge">
<title>ur_integrator&#45;&gt;error</title>
<path fill="none" stroke="black" d="M112.13,-132.67C128.31,-135.8 145.59,-139.15 160.27,-141.99"/>
<polygon fill="black" stroke="black" points="159.96,-145.49 170.45,-143.96 161.29,-138.62 159.96,-145.49"/>
<text text-anchor="middle" x="162.45" y="-138.36" font-family="Times,serif" font-size="7.00" fill="red">sin1</text>
<text text-anchor="middle" x="136.63" y="-127.07" font-family="Times,serif" font-size="7.00" fill="red">configuration</text>
</g>
<!-- ur_dynamic -->
<g id="node6" class="node">
<title>ur_dynamic</title>
<polygon fill="cyan" stroke="black" points="247,-59 148,-59 148,-23 247,-23 247,-59"/>
<text text-anchor="middle" x="197.5" y="-37.3" font-family="Times,serif" font-size="14.00">ur_dynamic</text>
</g>
<!-- ur_integrator&#45;&gt;ur_dynamic -->
<g id="edge4" class="edge">
<title>ur_integrator&#45;&gt;ur_dynamic</title>
<path fill="none" stroke="black" d="M87.21,-103.79C104.86,-93.22 127.61,-79.72 148,-68 150.23,-66.72 152.52,-65.41 154.84,-64.1"/>
<polygon fill="black" stroke="black" points="156.83,-66.99 163.82,-59.03 153.39,-60.89 156.83,-66.99"/>
<text text-anchor="middle" x="148.82" y="-61.43" font-family="Times,serif" font-size="7.00" fill="red">position</text>
<text text-anchor="middle" x="62.71" y="-98.19" font-family="Times,serif" font-size="7.00" fill="red">configuration</text>
</g>
</g>
</svg>
